<?xml version="1.0" encoding="UTF-8"?><svg id="Layer_2" xmlns="http://www.w3.org/2000/svg" viewBox="0 0 150.25 105.3"><defs><style>.cls-1{fill:#fff;}</style></defs><g id="Layer_1-2"><path class="cls-1" d="M13.5,0h7.19l-4.85,31.99H4.89L0,0h7.26l2.68,23.49c.04.15.08.32.1.51.02.19.04.37.06.53v2.76h.58l-.02-2.78c.01-.16.04-.33.07-.52.03-.18.06-.36.09-.52L13.5,0Z"/><path class="cls-1" d="M22.64,0h14.85v6.45h-7.64v6.14h7.48v6.45h-7.48v6.53h7.64v6.43h-14.85V0Z"/><path class="cls-1" d="M51.95,31.99h-7.24V6.45h-5.25V0h17.71v6.45h-7.3v.53h.64c.44-.01.79.1,1.05.34.26.24.39.56.39.95v23.72Z"/><path class="cls-1" d="M59.1,0h14.85v6.45h-7.64v6.14h7.48v6.45h-7.48v6.53h7.64v6.43h-14.85V0Z"/><path class="cls-1" d="M75.99,0h11.69c3.13,0,5.16.92,6.09,2.76.93,1.84,1.39,4.29,1.39,7.36,0,2.76-.48,4.97-1.44,6.65-.96,1.68-3.02,2.51-6.18,2.51h-4.29v12.71h-7.26V0ZM86.08,24.97v-2.61h-7.68v-5.8l12.24-.14.8,1.64-1.9,1.03.09.51,2.68-.57,3.03,12.95h-7.26l-1.99-7.01ZM86.48,15.04c.52,0,.89-.47,1.12-1.41s.34-2.1.34-3.48c0-1.47-.11-2.73-.34-3.76-.23-1.03-.6-1.55-1.12-1.55h-3.28v10.2h3.28Z"/><path class="cls-1" d="M101.67,0h11.4l4.8,31.99h-7.35l-.91-7.09h-4.65l-.91,7.09h-7.35L101.67,0ZM105.78,19.76h3.05l-1.08-12.95c-.04-.27-.08-.58-.11-.93s-.04-.68-.04-.99l.02-.69h-.55l.04.71c-.01.3-.03.63-.06.98s-.06.67-.12.94l-1.15,12.93Z"/><path class="cls-1" d="M126.9,31.99h-7.13V0h13.06l4.54,26.33h.55l-.6-9.91c-.03-.16-.05-.35-.07-.57s-.02-.42-.02-.61V0h7.17v31.99h-12.95l-4.71-26.86h-.55l.66,10.01c.01.18.03.36.03.57,0,.2.01.4.01.59v15.69Z"/><path class="cls-1" d="M.13,36.57h11.09c3.22,0,5.35.61,6.41,1.83,1.05,1.22,1.57,3.21,1.54,5.95-.03,2.09-.27,3.58-.73,4.46-.5,1.23-1.51,1.94-3.01,2.13v.63c1.43.01,2.46.63,3.1,1.84.63,1.22.95,3.18.95,5.88,0,3.69-.52,6.16-1.55,7.4-1.03,1.24-3.24,1.86-6.62,1.86H.13v-31.99ZM11,48.65c.46,0,.76-.27.92-.82.16-.55.23-1.43.23-2.65s-.07-2.06-.21-2.53c-.14-.47-.43-.71-.87-.71h-3.83v6.71h3.76ZM11.18,63.11c.47,0,.78-.29.92-.87s.21-1.75.21-3.51-.08-2.94-.24-3.68-.5-1.11-1.02-1.11h-3.81v9.16h3.94Z"/><path class="cls-1" d="M23.95,66.43c-1.58-1.54-2.37-3.76-2.37-6.67v-23.19h7.19v22.99c0,1.62.2,2.62.59,3,.39.38,1.1.57,2.14.57s1.7-.19,2.09-.57c.39-.38.59-1.38.59-3v-22.99h7.19v23.19c0,2.91-.79,5.13-2.37,6.67s-4.08,2.31-7.5,2.31-5.97-.77-7.55-2.31Z"/><path class="cls-1" d="M43.63,36.57h7.22v31.99h-7.22v-31.99Z"/><path class="cls-1" d="M58.21,61.53v.55h8.83v6.49h-13.99v-31.99h7.22v23.66c0,.38-.13.69-.38.93-.25.24-.6.36-1.04.36h-.64Z"/><path class="cls-1" d="M68.99,36.57h10.85c3.36,0,5.65,1.11,6.86,3.34,1.21,2.23,1.82,6.45,1.82,12.67s-.61,10.45-1.83,12.66c-1.22,2.21-3.5,3.31-6.85,3.31h-10.85v-31.99ZM79,63.13c.83,0,1.42-.36,1.79-1.07.37-.72.55-3.87.55-9.47s-.18-8.69-.55-9.44-.97-1.12-1.79-1.12h-2.86v21.1h2.86Z"/><path class="cls-1" d="M90.66,36.57h7.22v31.99h-7.22v-31.99Z"/><path class="cls-1" d="M107.22,68.56h-7.13v-31.99h13.06l4.54,26.33h.55l-.6-9.91c-.03-.16-.05-.35-.07-.57s-.02-.42-.02-.61v-15.24h7.17v31.99h-12.95l-4.71-26.86h-.55l.66,10.01c.01.18.03.36.03.57,0,.2.01.4.01.59v15.69Z"/><path class="cls-1" d="M129.34,66.2c-1.67-1.68-2.51-6.23-2.51-13.63,0-7.01.83-11.43,2.48-13.26,1.65-1.82,4.17-2.74,7.55-2.74s5.67.86,7.3,2.58c1.64,1.72,2.49,4.88,2.55,9.46h-7.19c-.07-3.66-.29-5.68-.65-6.06-.36-.38-1.02-.57-1.98-.57s-1.71.24-2.16.73c-.45.49-.68,3.92-.68,10.3,0,4.87.23,7.8.69,8.81.46,1.01,1.29,1.51,2.5,1.51,1.03,0,1.75-.3,2.15-.9.4-.6.62-2.03.66-4.29l.22-1.48h-3.12v-4.82h9.56v16.7h-4.4v-2.51l.62-2.23-.53-.14-.69,2.23c-.74,1.89-2.66,2.84-5.78,2.84-2.72,0-4.91-.84-6.59-2.52Z"/><path class="cls-1" d="M2.43,103.24c-1.56-1.37-2.35-4.44-2.35-9.19h7.19c0,3.43.23,5.27.69,5.51.46.24,1.12.36,1.99.36s1.56-.1,2.03-.29c.47-.2.7-1.18.7-2.95,0-1.55-.37-2.6-1.1-3.13-.73-.53-1.94-1.02-3.64-1.45-3.25-1.05-5.36-2.16-6.34-3.31-.98-1.16-1.47-3.06-1.47-5.73,0-4,.81-6.65,2.42-7.96,1.62-1.3,4.08-1.96,7.4-1.96s5.75.73,7.38,2.19c1.63,1.46,2.45,4.46,2.45,9h-7.19c0-3.43-.24-5.26-.72-5.48-.48-.22-1.15-.33-2-.33s-1.54.08-2,.25c-.47.17-.7,1.17-.7,2.99,0,1.72.38,2.81,1.15,3.28.77.47,2.02.96,3.76,1.46,3.23,1.01,5.33,2.04,6.3,3.09s1.45,2.92,1.45,5.6c0,3.92-.77,6.58-2.32,7.99s-4.06,2.11-7.53,2.11-5.98-.69-7.55-2.06Z"/><path class="cls-1" d="M21.89,73.15h14.85v6.45h-7.64v6.14h7.48v6.45h-7.48v6.53h7.64v6.43h-14.85v-31.99Z"/><path class="cls-1" d="M38.78,73.15h11.69c3.13,0,5.16.92,6.09,2.76s1.39,4.29,1.39,7.36c0,2.76-.48,4.97-1.44,6.65-.96,1.68-3.02,2.51-6.18,2.51h-4.29v12.71h-7.26v-31.99ZM48.87,98.12v-2.61h-7.68v-5.8l12.24-.14.8,1.64-1.9,1.03.09.51,2.68-.57,3.03,12.95h-7.26l-1.99-7.01ZM49.27,88.19c.52,0,.89-.47,1.12-1.41.23-.94.34-2.1.34-3.48,0-1.47-.12-2.73-.34-3.76-.23-1.03-.6-1.55-1.12-1.55h-3.28v10.2h3.28Z"/><path class="cls-1" d="M73,73.15h7.19l-4.85,31.99h-10.96l-4.89-31.99h7.26l2.68,23.49c.04.15.08.32.1.51.02.19.04.37.06.53v2.76h.58l-.02-2.78c.01-.16.04-.33.07-.52.03-.18.06-.36.09-.52l2.7-23.47Z"/><path class="cls-1" d="M82.28,73.15h7.22v31.99h-7.22v-31.99Z"/><path class="cls-1" d="M94.04,102.29c-1.59-2.01-2.38-6.38-2.38-13.11s.79-11.2,2.36-13.14,4.13-2.9,7.67-2.9,6.15.94,7.64,2.82c1.49,1.88,2.24,5.62,2.24,11.21h-7.22c0-5.04-.17-7.73-.51-8.08s-1.05-.52-2.13-.52-1.83.21-2.22.64c-.39.43-.59,3.75-.59,9.98s.2,9.5.6,9.97c.4.47,1.13.71,2.19.71s1.79-.2,2.14-.61c.35-.41.52-3.05.52-7.93h7.22c0,5.38-.74,9.05-2.24,11.01-1.49,1.96-4.03,2.94-7.62,2.94s-6.08-1-7.67-3.01Z"/><path class="cls-1" d="M113.66,73.15h14.85v6.45h-7.64v6.14h7.48v6.45h-7.48v6.53h7.64v6.43h-14.85v-31.99Z"/><path class="cls-1" d="M132.85,103.24c-1.56-1.37-2.35-4.44-2.35-9.19h7.19c0,3.43.23,5.27.69,5.51.46.24,1.12.36,1.99.36s1.56-.1,2.02-.29c.47-.2.7-1.18.7-2.95,0-1.55-.37-2.6-1.1-3.13-.73-.53-1.95-1.02-3.64-1.45-3.25-1.05-5.36-2.16-6.34-3.31-.98-1.16-1.47-3.06-1.47-5.73,0-4,.81-6.65,2.42-7.96,1.62-1.3,4.08-1.96,7.4-1.96s5.75.73,7.38,2.19,2.45,4.46,2.45,9h-7.19c0-3.43-.24-5.26-.72-5.48-.48-.22-1.15-.33-2-.33s-1.54.08-2,.25-.7,1.17-.7,2.99c0,1.72.38,2.81,1.15,3.28.77.47,2.02.96,3.76,1.46,3.23,1.01,5.33,2.04,6.3,3.09s1.45,2.92,1.45,5.6c0,3.92-.77,6.58-2.32,7.99s-4.06,2.11-7.53,2.11-5.98-.69-7.55-2.06Z"/></g></svg>