<?xml version="1.0" encoding="UTF-8"?><svg id="Layer_2" xmlns="http://www.w3.org/2000/svg" viewBox="0 0 124.75 65.66"><defs><style>.cls-1{fill:#231f20;}.cls-2{fill:#fff;}.cls-3{fill:#ed6f3e;}</style></defs><g id="Layer_1-2"><rect class="cls-2" x="0" y="5.05" width="124.75" height="5.05"/><rect class="cls-2" x="0" y="15.15" width="124.75" height="5.05"/><rect class="cls-2" x="0" y="25.25" width="124.75" height="5.05"/><rect class="cls-3" x="0" y="35.36" width="124.75" height="5.05"/><rect class="cls-2" x="0" y="45.46" width="124.75" height="5.05"/><rect class="cls-2" x="0" y="55.56" width="124.75" height="5.05"/><rect class="cls-1" x="0" width="124.75" height="5.05"/><rect class="cls-1" x="0" y="10.1" width="124.75" height="5.05"/><rect class="cls-1" x="0" y="20.2" width="124.75" height="5.05"/><rect class="cls-1" x="0" y="30.3" width="124.75" height="5.05"/><rect class="cls-1" x="0" y="40.41" width="124.75" height="5.05"/><rect class="cls-1" x="0" y="50.51" width="124.75" height="5.05"/><rect class="cls-1" x="0" y="60.61" width="124.75" height="5.05"/><rect class="cls-1" width="49.9" height="35.36"/><g id="s18"><g id="s9"><g id="s5"><g id="s4"><g id="s"><path class="cls-2" d="M4.16,1.52l1.19,3.65-3.11-2.26h3.84l-3.11,2.26,1.19-3.65Z"/></g><g id="s-2"><path class="cls-2" d="M4.16,8.59l1.19,3.65-3.11-2.26h3.84l-3.11,2.26,1.19-3.65Z"/></g><g id="s-3"><path class="cls-2" d="M4.16,15.66l1.19,3.65-3.11-2.26h3.84l-3.11,2.26,1.19-3.65Z"/></g><g id="s-4"><path class="cls-2" d="M4.16,22.73l1.19,3.65-3.11-2.26h3.84l-3.11,2.26,1.19-3.65Z"/></g></g><g id="s-5"><path class="cls-2" d="M4.16,29.8l1.19,3.65-3.11-2.26h3.84l-3.11,2.26,1.19-3.65Z"/></g></g><g id="s4-2"><g id="s-6"><path class="cls-2" d="M8.32,5.05l1.19,3.65-3.11-2.26h3.84l-3.11,2.26,1.19-3.65Z"/></g><g id="s-7"><path class="cls-2" d="M8.32,12.12l1.19,3.65-3.11-2.26h3.84l-3.11,2.26,1.19-3.65Z"/></g><g id="s-8"><path class="cls-2" d="M8.32,19.19l1.19,3.65-3.11-2.26h3.84l-3.11,2.26,1.19-3.65Z"/></g><g id="s-9"><path class="cls-2" d="M8.32,26.26l1.19,3.65-3.11-2.26h3.84l-3.11,2.26,1.19-3.65Z"/></g></g></g><g id="s9-2"><g id="s5-2"><g id="s4-3"><g id="s-10"><path class="cls-2" d="M12.48,1.52l1.19,3.65-3.11-2.26h3.84l-3.11,2.26,1.19-3.65Z"/></g><g id="s-11"><path class="cls-2" d="M12.48,8.59l1.19,3.65-3.11-2.26h3.84l-3.11,2.26,1.19-3.65Z"/></g><g id="s-12"><path class="cls-2" d="M12.48,15.66l1.19,3.65-3.11-2.26h3.84l-3.11,2.26,1.19-3.65Z"/></g><g id="s-13"><path class="cls-2" d="M12.48,22.73l1.19,3.65-3.11-2.26h3.84l-3.11,2.26,1.19-3.65Z"/></g></g><g id="s-14"><path class="cls-2" d="M12.48,29.8l1.19,3.65-3.11-2.26h3.84l-3.11,2.26,1.19-3.65Z"/></g></g><g id="s4-4"><g id="s-15"><path class="cls-2" d="M16.63,5.05l1.19,3.65-3.11-2.26h3.84l-3.11,2.26,1.19-3.65Z"/></g><g id="s-16"><path class="cls-2" d="M16.63,12.12l1.19,3.65-3.11-2.26h3.84l-3.11,2.26,1.19-3.65Z"/></g><g id="s-17"><path class="cls-2" d="M16.63,19.19l1.19,3.65-3.11-2.26h3.84l-3.11,2.26,1.19-3.65Z"/></g><g id="s-18"><path class="cls-2" d="M16.63,26.26l1.19,3.65-3.11-2.26h3.84l-3.11,2.26,1.19-3.65Z"/></g></g></g></g><g id="s18-2"><g id="s9-3"><g id="s5-3"><g id="s4-5"><g id="s-19"><path class="cls-2" d="M20.79,1.52l1.19,3.65-3.11-2.26h3.84l-3.11,2.26,1.19-3.65Z"/></g><g id="s-20"><path class="cls-2" d="M20.79,8.59l1.19,3.65-3.11-2.26h3.84l-3.11,2.26,1.19-3.65Z"/></g><g id="s-21"><path class="cls-2" d="M20.79,15.66l1.19,3.65-3.11-2.26h3.84l-3.11,2.26,1.19-3.65Z"/></g><g id="s-22"><path class="cls-2" d="M20.79,22.73l1.19,3.65-3.11-2.26h3.84l-3.11,2.26,1.19-3.65Z"/></g></g><g id="s-23"><path class="cls-2" d="M20.79,29.8l1.19,3.65-3.11-2.26h3.84l-3.11,2.26,1.19-3.65Z"/></g></g><g id="s4-6"><g id="s-24"><path class="cls-2" d="M24.95,5.05l1.19,3.65-3.11-2.26h3.84l-3.11,2.26,1.19-3.65Z"/></g><g id="s-25"><path class="cls-2" d="M24.95,12.12l1.19,3.65-3.11-2.26h3.84l-3.11,2.26,1.19-3.65Z"/></g><g id="s-26"><path class="cls-2" d="M24.95,19.19l1.19,3.65-3.11-2.26h3.84l-3.11,2.26,1.19-3.65Z"/></g><g id="s-27"><path class="cls-2" d="M24.95,26.26l1.19,3.65-3.11-2.26h3.84l-3.11,2.26,1.19-3.65Z"/></g></g></g><g id="s9-4"><g id="s5-4"><g id="s4-7"><g id="s-28"><path class="cls-2" d="M29.11,1.52l1.19,3.65-3.11-2.26h3.84l-3.11,2.26,1.19-3.65Z"/></g><g id="s-29"><path class="cls-2" d="M29.11,8.59l1.19,3.65-3.11-2.26h3.84l-3.11,2.26,1.19-3.65Z"/></g><g id="s-30"><path class="cls-2" d="M29.11,15.66l1.19,3.65-3.11-2.26h3.84l-3.11,2.26,1.19-3.65Z"/></g><g id="s-31"><path class="cls-2" d="M29.11,22.73l1.19,3.65-3.11-2.26h3.84l-3.11,2.26,1.19-3.65Z"/></g></g><g id="s-32"><path class="cls-2" d="M29.11,29.8l1.19,3.65-3.11-2.26h3.84l-3.11,2.26,1.19-3.65Z"/></g></g><g id="s4-8"><g id="s-33"><path class="cls-2" d="M33.27,5.05l1.19,3.65-3.11-2.26h3.84l-3.11,2.26,1.19-3.65Z"/></g><g id="s-34"><path class="cls-2" d="M33.27,12.12l1.19,3.65-3.11-2.26h3.84l-3.11,2.26,1.19-3.65Z"/></g><g id="s-35"><path class="cls-2" d="M33.27,19.19l1.19,3.65-3.11-2.26h3.84l-3.11,2.26,1.19-3.65Z"/></g><g id="s-36"><path class="cls-2" d="M33.27,26.26l1.19,3.65-3.11-2.26h3.84l-3.11,2.26,1.19-3.65Z"/></g></g></g></g><g id="s9-5"><g id="s5-5"><g id="s4-9"><g id="s-37"><path class="cls-2" d="M37.43,1.52l1.19,3.65-3.11-2.26h3.84l-3.11,2.26,1.19-3.65Z"/></g><g id="s-38"><path class="cls-2" d="M37.43,8.59l1.19,3.65-3.11-2.26h3.84l-3.11,2.26,1.19-3.65Z"/></g><g id="s-39"><path class="cls-2" d="M37.43,15.66l1.19,3.65-3.11-2.26h3.84l-3.11,2.26,1.19-3.65Z"/></g><g id="s-40"><path class="cls-2" d="M37.43,22.73l1.19,3.65-3.11-2.26h3.84l-3.11,2.26,1.19-3.65Z"/></g></g><g id="s-41"><path class="cls-2" d="M37.43,29.8l1.19,3.65-3.11-2.26h3.84l-3.11,2.26,1.19-3.65Z"/></g></g><g id="s4-10"><g id="s-42"><path class="cls-2" d="M41.58,5.05l1.19,3.65-3.11-2.26h3.84l-3.11,2.26,1.19-3.65Z"/></g><g id="s-43"><path class="cls-2" d="M41.58,12.12l1.19,3.65-3.11-2.26h3.84l-3.11,2.26,1.19-3.65Z"/></g><g id="s-44"><path class="cls-2" d="M41.58,19.19l1.19,3.65-3.11-2.26h3.84l-3.11,2.26,1.19-3.65Z"/></g><g id="s-45"><path class="cls-2" d="M41.58,26.26l1.19,3.65-3.11-2.26h3.84l-3.11,2.26,1.19-3.65Z"/></g></g></g><g id="s5-6"><g id="s4-11"><g id="s-46"><path class="cls-2" d="M45.74,1.52l1.19,3.65-3.11-2.26h3.84l-3.11,2.26,1.19-3.65Z"/></g><g id="s-47"><path class="cls-2" d="M45.74,8.59l1.19,3.65-3.11-2.26h3.84l-3.11,2.26,1.19-3.65Z"/></g><g id="s-48"><path class="cls-2" d="M45.74,15.66l1.19,3.65-3.11-2.26h3.84l-3.11,2.26,1.19-3.65Z"/></g><g id="s-49"><path class="cls-2" d="M45.74,22.73l1.19,3.65-3.11-2.26h3.84l-3.11,2.26,1.19-3.65Z"/></g></g><g id="s-50"><path class="cls-2" d="M45.74,29.8l1.19,3.65-3.11-2.26h3.84l-3.11,2.26,1.19-3.65Z"/></g></g></g></svg>