<?xml version="1.0" encoding="UTF-8"?>
<svg id="Layer_2" xmlns="http://www.w3.org/2000/svg" version="1.1" viewBox="0 0 303.9 70.1">
  <!-- Generator: Adobe Illustrator 29.0.1, SVG Export Plug-In . SVG Version: 2.1.0 Build 192)  -->
  <defs>
    <style>
      .st0 {
        fill: #34241d;
      }

      .st1 {
        fill: #ed6f3e;
      }
    </style>
  </defs>
  <g id="Layer_1-2">
    <path class="st0" d="M69.1,9.3h8c2.5,0,4.2.8,5.1,2.4.9,1.6,1.3,4.7,1.3,9.3s-.4,7.7-1.3,9.3c-.9,1.6-2.6,2.4-5.1,2.4h-8V9.3h0ZM76.5,28.8c.6,0,1.1-.3,1.3-.8.3-.5.4-2.8.4-6.9s-.1-6.4-.4-6.9-.7-.8-1.3-.8h-2.1v15.5s2.1,0,2.1,0Z"/>
    <path class="st0" d="M86.7,30.7c-1.2-1.5-1.8-4.7-1.8-9.6s.6-8.2,1.8-9.6c1.2-1.4,3.1-2.1,5.7-2.1s4.6.7,5.7,2.1,1.7,4.1,1.7,8.2h-5.3c0-3.7-.1-5.7-.4-5.9-.2-.2-.8-.4-1.6-.4s-1.4.2-1.7.5-.4,2.8-.4,7.3.2,7,.4,7.3.8.5,1.6.5,1.3-.1,1.6-.5c.3-.3.4-2.2.4-5.8h5.3c0,4-.6,6.6-1.7,8.1-1.1,1.4-3,2.2-5.6,2.2s-4.5-.7-5.7-2.2h0Z"/>
    <path class="st0" d="M117.6,9.3h5.3l-3.6,23.5h-8.1l-3.6-23.5h5.4l2,17.2c0,.1,0,.2,0,.4,0,.1,0,.3,0,.4v2h.4v-2c0-.1,0-.2,0-.4,0-.1,0-.3,0-.4l2-17.2h0Z"/>
    <path class="st0" d="M124.4,9.3h11v4.7h-5.7v4.5h5.6v4.7h-5.6v4.8h5.7v4.7h-11V9.3Z"/>
    <path class="st0" d="M146.1,32.8h-5.4V14.1h-3.9v-4.7h13.1v4.7h-5.4v.4h.5c.3,0,.6,0,.8.2s.3.4.3.7v17.4h0Z"/>
    <path class="st0" d="M151.4,9.3h11v4.7h-5.7v4.5h5.6v4.7h-5.6v4.8h5.7v4.7h-11V9.3Z"/>
    <path class="st0" d="M163.9,9.3h8.7c2.3,0,3.8.7,4.5,2s1,3.1,1,5.4-.4,3.6-1.1,4.9c-.7,1.2-2.2,1.8-4.6,1.8h-3.2v9.3h-5.4V9.3h0ZM171.4,27.6v-1.9h-5.7v-4.2h9.1c0-.1.6,1.1.6,1.1l-1.4.8v.4c0,0,2.1-.4,2.1-.4l2.2,9.5h-5.4l-1.5-5.1h0ZM171.7,20.4c.4,0,.7-.3.8-1s.2-1.5.2-2.5,0-2-.2-2.8c-.2-.8-.4-1.1-.8-1.1h-2.4v7.5h2.4Z"/>
    <path class="st0" d="M182.9,9.3h8.4l3.6,23.5h-5.4l-.7-5.2h-3.4l-.7,5.2h-5.4s3.7-23.5,3.7-23.5ZM186,23.8h2.3l-.8-9.5c0-.2,0-.4,0-.7,0-.3,0-.5,0-.7v-.5s-.4,0-.4,0v.5c0,.2,0,.5,0,.7,0,.3,0,.5,0,.7l-.9,9.5h0Z"/>
    <path class="st0" d="M201.6,32.8h-5.3V9.3h9.7l3.4,19.3h.4l-.4-7.3c0-.1,0-.3,0-.4s0-.3,0-.5v-11.2h5.3v23.5h-9.6l-3.5-19.7h-.4l.5,7.4c0,.1,0,.3,0,.4v11.9h0Z"/>
    <path class="st0" d="M69.1,36.2h8.2c2.4,0,4,.5,4.8,1.3.8.9,1.2,2.3,1.1,4.4,0,1.5-.2,2.6-.5,3.3-.4.9-1.1,1.4-2.2,1.6v.5c1.1,0,1.8.5,2.3,1.3s.7,2.3.7,4.3-.4,4.5-1.2,5.4c-.8.9-2.4,1.4-4.9,1.4h-8.3v-23.5ZM77.1,45c.3,0,.6-.2.7-.6.1-.4.2-1,.2-1.9s0-1.5-.2-1.9c0-.3-.3-.5-.7-.5h-2.8v4.9h2.8ZM77.3,55.6c.3,0,.6-.2.7-.6s.2-1.3.2-2.6,0-2.2-.2-2.7-.4-.8-.8-.8h-2.8v6.7h2.9Z"/>
    <path class="st0" d="M86.7,58.1c-1.2-1.1-1.8-2.8-1.8-4.9v-17h5.3v16.9c0,1.2.2,1.9.4,2.2.3.3.8.4,1.6.4s1.3-.1,1.6-.4.4-1,.4-2.2v-16.9h5.3v17c0,2.1-.6,3.8-1.8,4.9-1.2,1.1-3,1.7-5.6,1.7s-4.4-.6-5.6-1.7h0Z"/>
    <path class="st0" d="M101.3,36.2h5.3v23.5h-5.3v-23.5Z"/>
    <path class="st0" d="M112.1,54.5v.4h6.6v4.8h-10.4v-23.5h5.3v17.3c0,.3,0,.5-.3.7-.2.2-.4.3-.8.3,0,0-.5,0-.5,0Z"/>
    <path class="st0" d="M120.1,36.2h8c2.5,0,4.2.8,5.1,2.5.9,1.6,1.4,4.7,1.4,9.3s-.4,7.7-1.4,9.3c-.9,1.6-2.6,2.4-5.1,2.4h-8v-23.5h0ZM127.5,55.6c.6,0,1.1-.3,1.3-.8.3-.5.4-2.8.4-6.9s-.1-6.4-.4-6.9-.7-.8-1.3-.8h-2.1v15.5s2.1,0,2.1,0Z"/>
    <path class="st0" d="M136.2,36.2h5.4v23.5h-5.4v-23.5Z"/>
    <path class="st0" d="M148.4,59.6h-5.3v-23.5h9.7l3.4,19.3h.4l-.4-7.3c0-.1,0-.3,0-.4s0-.3,0-.5v-11.2h5.3v23.5h-9.6l-3.5-19.7h-.4l.5,7.3c0,.1,0,.3,0,.4v11.9h0Z"/>
    <path class="st0" d="M164.8,57.9c-1.2-1.2-1.9-4.6-1.9-10s.6-8.4,1.8-9.7c1.2-1.3,3.1-2,5.6-2s4.2.6,5.4,1.9,1.8,3.6,1.9,6.9h-5.3c0-2.7-.2-4.2-.5-4.5-.3-.3-.8-.4-1.5-.4s-1.3.2-1.6.5-.5,2.9-.5,7.5.2,5.7.5,6.5c.3.7,1,1.1,1.9,1.1s1.3-.2,1.6-.7.5-1.5.5-3.2l.2-1.1h-2.3v-3.5h7.1v12.2h-3.3v-1.8l.5-1.6h-.4c0,0-.5,1.5-.5,1.5-.6,1.4-2,2.1-4.3,2.1s-3.6-.6-4.9-1.8h0Z"/>
    <path class="st0" d="M187.4,58.2c-1.2-1-1.7-3.2-1.7-6.7h5.3c0,2.5.2,3.9.5,4s.8.3,1.5.3,1.2,0,1.5-.2c.3-.1.5-.9.5-2.2s-.3-1.9-.8-2.3-1.4-.8-2.7-1.1c-2.4-.8-4-1.6-4.7-2.4s-1.1-2.2-1.1-4.2c0-2.9.6-4.9,1.8-5.8s3-1.4,5.5-1.4,4.3.5,5.5,1.6,1.8,3.3,1.8,6.6h-5.3c0-2.5-.2-3.9-.5-4-.4-.2-.9-.2-1.5-.2s-1.1,0-1.5.2c-.3.1-.5.8-.5,2.2s.3,2.1.9,2.4,1.5.7,2.8,1.1c2.4.7,3.9,1.5,4.7,2.3s1.1,2.1,1.1,4.1c0,2.9-.6,4.8-1.7,5.9s-3,1.5-5.6,1.5-4.4-.5-5.6-1.5h0Z"/>
    <path class="st0" d="M201.8,36.2h11v4.7h-5.7v4.5h5.6v4.7h-5.6v4.8h5.7v4.7h-11v-23.5h0Z"/>
    <path class="st0" d="M214.3,36.2h8.7c2.3,0,3.8.7,4.5,2s1,3.2,1,5.4-.4,3.7-1.1,4.9-2.2,1.8-4.6,1.8h-3.2v9.3h-5.4v-23.5h0ZM221.8,54.5v-1.9h-5.7v-4.2h9.1c0,0,.6,1.1.6,1.1l-1.4.8v.4c0,0,2.1-.4,2.1-.4l2.2,9.5h-5.4l-1.5-5.1h0ZM222.1,47.2c.4,0,.7-.3.8-1s.2-1.5.2-2.5,0-2-.2-2.8c-.2-.8-.4-1.1-.8-1.1h-2.4v7.5s2.4,0,2.4,0Z"/>
    <path class="st0" d="M239.7,36.2h5.3l-3.6,23.5h-8.1l-3.6-23.5h5.4l2,17.2c0,.1,0,.2,0,.4,0,.1,0,.3,0,.4v2h.4v-2c0-.1,0-.2,0-.4,0-.1,0-.3,0-.4l2-17.2h0Z"/>
    <path class="st0" d="M246.5,36.2h5.3v23.5h-5.4v-23.5h0Z"/>
    <path class="st0" d="M255.3,57.5c-1.2-1.5-1.8-4.7-1.8-9.6s.6-8.2,1.8-9.6c1.2-1.4,3.1-2.1,5.7-2.1s4.6.7,5.7,2.1,1.7,4.1,1.7,8.2h-5.4c0-3.7-.1-5.7-.4-5.9-.2-.2-.8-.4-1.6-.4s-1.4.2-1.6.5-.4,2.8-.4,7.3.1,7,.4,7.3.8.5,1.6.5,1.3-.2,1.6-.5c.3-.3.4-2.2.4-5.8h5.4c0,4-.5,6.6-1.7,8.1-1.1,1.4-3,2.2-5.6,2.2s-4.5-.7-5.7-2.2h0Z"/>
    <path class="st0" d="M269.8,36.2h11v4.7h-5.7v4.5h5.5v4.7h-5.5v4.8h5.7v4.7h-11v-23.5h0Z"/>
    <path class="st0" d="M284,58.2c-1.2-1-1.7-3.2-1.7-6.7h5.3c0,2.5.2,3.9.5,4s.8.3,1.5.3,1.2,0,1.5-.2c.3-.1.5-.9.5-2.2s-.3-1.9-.8-2.3-1.4-.8-2.7-1.1c-2.4-.8-4-1.6-4.7-2.4s-1.1-2.2-1.1-4.2c0-2.9.6-4.9,1.8-5.8,1.2-1,3-1.4,5.5-1.4s4.3.5,5.5,1.6,1.8,3.3,1.8,6.6h-5.3c0-2.5-.2-3.9-.5-4-.4-.2-.9-.2-1.5-.2s-1.1,0-1.5.2c-.3.1-.5.8-.5,2.2s.3,2.1.9,2.4,1.5.7,2.8,1.1c2.4.7,4,1.5,4.7,2.3s1.1,2.1,1.1,4.1c0,2.9-.6,4.8-1.7,5.9s-3,1.5-5.6,1.5-4.4-.5-5.6-1.5h0Z"/>
    <path class="st0" d="M17.3,16.8h4.9l-2.4,38.7h-7.8l-2.4-38.7h4.9l1.1,31.4v3.2h.5v-2.6s0-.3,0-.3c0,0,0-.2,0-.3l1.1-31.4h0Z"/>
    <path class="st0" d="M23.5,16.8h6c2.4,0,4,.7,4.7,2.1.7,1.4,1,3.9.9,7.2,0,2.3-.1,4.1-.3,5.4-.3,1.6-1,2.5-2.2,2.7v.6c1.2,0,1.9.9,2.2,2.6.2,1.7.4,4.1.4,7.1,0,4.5-.3,7.4-1,8.8-.7,1.4-2.3,2.1-4.9,2.1h-5.7V16.8h0ZM29.4,32.5c.4,0,.6-.4.7-1.2s.1-2.4.1-4.6,0-3.7,0-4.5-.3-1.2-.7-1.2h-1v11.6h1ZM29.4,51.2c.4,0,.6-.4.7-1.3s.1-2.7.1-5.6,0-4.8-.1-5.9c0-1.1-.3-1.7-.7-1.7h-1v14.5h1.1Z"/>
    <path class="st0" d="M38.1,53.4c-.8-1.4-1.3-5.3-1.3-11.6h4.9c0,5.5,0,8.5.1,9,0,.4.4.7.9.7s.8-.2.9-.6.1-2,.1-4.8,0-4.2-.3-5.2c-.2-1.1-.8-1.9-1.9-2.3-2.2-1.1-3.6-2.4-4-3.9-.4-1.5-.7-3.8-.7-6.9,0-4.5.5-7.4,1.4-8.8s2.4-2,4.5-2,3.6.7,4.5,2.2c.9,1.5,1.4,5.3,1.4,11.5h-4.9c0-5.6,0-8.6-.1-9s-.4-.6-.9-.6-.8.2-.9.5-.1,2-.1,4.9.1,4.2.3,5.2c.2,1,.9,1.8,2.1,2.3,2.1,1,3.4,2.3,3.9,3.7.5,1.4.7,3.8.7,7s-.4,7.1-1.3,8.6-2.4,2.3-4.7,2.3-3.8-.7-4.6-2.2h0Z"/>
    <path class="st1" d="M29.2,70.1c-.2,0-.4,0-.6,0L1.8,63.2c-1.1-.3-1.8-1.2-1.8-2.3V10.9c0-1.1.7-2,1.7-2.3L28.4.1c.5-.2,1-.2,1.5,0l26.7,8.5c1,.3,1.7,1.2,1.7,2.3v50c0,1.1-.8,2.1-1.8,2.3l-26.7,6.8c-.2,0-.4,0-.6,0h0ZM4.8,59l24.3,6.2,24.3-6.2V12.7l-24.3-7.7L4.8,12.7v46.3ZM55.9,60.8h0Z"/>
  </g>
</svg>