<?xml version="1.0" encoding="UTF-8"?><svg id="Layer_2" xmlns="http://www.w3.org/2000/svg" viewBox="0 0 303.93 70.05"><defs><style>.cls-1{fill:#f8f6e1;}.cls-2{fill:#ed6f3e;}</style></defs><g id="Layer_1-2"><path class="cls-1" d="M76.07,9.33h8.04c2.49,0,4.19.82,5.09,2.45.9,1.64,1.35,4.73,1.35,9.29s-.45,7.66-1.35,9.29c-.9,1.62-2.59,2.43-5.08,2.43h-8.04V9.33ZM83.49,28.81c.61,0,1.06-.26,1.33-.79.27-.53.41-2.84.41-6.94s-.14-6.37-.41-6.92-.72-.83-1.33-.83h-2.12v15.48h2.12Z"/><path class="cls-1" d="M93.75,30.71c-1.18-1.47-1.76-4.68-1.76-9.61s.58-8.22,1.75-9.63c1.17-1.42,3.06-2.13,5.69-2.13s4.56.69,5.66,2.07,1.66,4.12,1.66,8.22h-5.35c0-3.7-.13-5.67-.38-5.93-.25-.25-.78-.38-1.58-.38s-1.36.16-1.65.47c-.29.31-.43,2.75-.43,7.32s.15,6.97.44,7.32.84.52,1.62.52,1.33-.15,1.58-.45c.26-.3.39-2.24.39-5.81h5.35c0,3.95-.55,6.64-1.66,8.07-1.1,1.44-2.99,2.16-5.64,2.16s-4.51-.74-5.68-2.21Z"/><path class="cls-1" d="M124.59,9.33h5.33l-3.59,23.46h-8.12l-3.63-23.46h5.38l1.99,17.23c.03.11.06.23.07.37.02.14.03.27.04.39v2.02h.43l-.02-2.04c.01-.12.03-.24.05-.38.02-.13.04-.26.07-.38l2-17.22Z"/><path class="cls-1" d="M131.36,9.33h11.01v4.73h-5.66v4.51h5.55v4.73h-5.55v4.79h5.66v4.71h-11.01V9.33Z"/><path class="cls-1" d="M153.08,32.8h-5.37V14.06h-3.89v-4.73h13.13v4.73h-5.41v.39h.48c.33,0,.59.07.78.25.19.18.29.41.29.7v17.4Z"/><path class="cls-1" d="M158.38,9.33h11.01v4.73h-5.66v4.51h5.55v4.73h-5.55v4.79h5.66v4.71h-11.01V9.33Z"/><path class="cls-1" d="M170.9,9.33h8.66c2.32,0,3.82.67,4.51,2.02s1.03,3.15,1.03,5.4c0,2.02-.36,3.65-1.07,4.88-.71,1.23-2.24,1.84-4.58,1.84h-3.18v9.32h-5.38V9.33ZM178.38,27.65v-1.92h-5.69v-4.25l9.07-.1.59,1.2-1.41.76.07.37,1.99-.42,2.25,9.5h-5.38l-1.48-5.14ZM178.68,20.36c.38,0,.66-.34.83-1.03.17-.69.25-1.54.25-2.55,0-1.08-.09-2-.25-2.76-.17-.76-.45-1.14-.83-1.14h-2.43v7.48h2.43Z"/><path class="cls-1" d="M189.94,9.33h8.45l3.56,23.46h-5.45l-.67-5.2h-3.45l-.67,5.2h-5.45l3.68-23.46ZM192.99,23.83h2.26l-.8-9.5c-.03-.2-.06-.43-.08-.68-.02-.26-.03-.5-.03-.73l.02-.51h-.41l.03.52c-.01.22-.02.46-.04.72-.02.26-.05.49-.09.69l-.85,9.49Z"/><path class="cls-1" d="M208.64,32.8h-5.28V9.33h9.68l3.36,19.32h.41l-.44-7.27c-.02-.12-.04-.26-.05-.42s-.02-.31-.02-.45v-11.18h5.32v23.46h-9.6l-3.49-19.7h-.41l.49,7.35c.01.13.02.27.02.42,0,.15,0,.29,0,.43v11.51Z"/><path class="cls-1" d="M76.07,36.16h8.22c2.38,0,3.97.45,4.75,1.35.78.9,1.16,2.35,1.14,4.36-.02,1.54-.2,2.63-.54,3.27-.37.9-1.12,1.42-2.23,1.56v.46c1.06,0,1.83.46,2.3,1.35.47.89.71,2.33.71,4.31,0,2.71-.38,4.52-1.15,5.43-.77.91-2.4,1.37-4.91,1.37h-8.29v-23.46ZM84.13,45.02c.34,0,.57-.2.68-.6.11-.4.17-1.05.17-1.94s-.05-1.51-.16-1.86c-.1-.35-.32-.52-.65-.52h-2.84v4.92h2.79ZM84.26,55.62c.35,0,.58-.21.68-.64s.16-1.28.16-2.57-.06-2.16-.18-2.7c-.12-.54-.37-.81-.76-.81h-2.82v6.72h2.92Z"/><path class="cls-1" d="M93.72,58.06c-1.17-1.13-1.76-2.76-1.76-4.89v-17.01h5.33v16.86c0,1.19.15,1.92.43,2.2.29.28.82.42,1.58.42s1.26-.14,1.55-.42c.29-.28.43-1.01.43-2.2v-16.86h5.33v17.01c0,2.13-.58,3.76-1.76,4.89-1.17,1.13-3.02,1.7-5.56,1.7s-4.42-.56-5.6-1.7Z"/><path class="cls-1" d="M108.31,36.16h5.35v23.46h-5.35v-23.46Z"/><path class="cls-1" d="M119.12,54.46v.4h6.55v4.76h-10.37v-23.46h5.35v17.35c0,.28-.09.51-.28.68-.19.18-.44.27-.77.27h-.48Z"/><path class="cls-1" d="M127.11,36.16h8.04c2.49,0,4.19.82,5.09,2.45.9,1.64,1.35,4.73,1.35,9.29s-.45,7.66-1.35,9.29c-.9,1.62-2.59,2.43-5.08,2.43h-8.04v-23.46ZM134.53,55.64c.61,0,1.06-.26,1.33-.79.27-.53.41-2.84.41-6.94s-.14-6.37-.41-6.92-.72-.83-1.33-.83h-2.12v15.48h2.12Z"/><path class="cls-1" d="M143.17,36.16h5.35v23.46h-5.35v-23.46Z"/><path class="cls-1" d="M155.45,59.62h-5.28v-23.46h9.68l3.36,19.32h.41l-.44-7.27c-.02-.12-.04-.26-.05-.42s-.02-.31-.02-.45v-11.18h5.32v23.46h-9.6l-3.49-19.7h-.41l.49,7.35c.01.13.02.27.02.42,0,.15,0,.29,0,.43v11.51Z"/><path class="cls-1" d="M171.85,57.89c-1.24-1.23-1.86-4.57-1.86-10,0-5.15.61-8.39,1.84-9.73,1.22-1.34,3.09-2.01,5.59-2.01s4.2.63,5.41,1.9,1.84,3.58,1.89,6.94h-5.33c-.05-2.69-.22-4.17-.48-4.45-.27-.28-.76-.42-1.47-.42s-1.27.18-1.6.54c-.33.36-.5,2.88-.5,7.55,0,3.57.17,5.72.51,6.46.34.74.96,1.11,1.85,1.11.77,0,1.3-.22,1.59-.66s.46-1.49.49-3.15l.16-1.09h-2.31v-3.54h7.09v12.25h-3.27v-1.84l.46-1.64-.39-.1-.51,1.64c-.55,1.39-1.97,2.08-4.28,2.08-2.01,0-3.64-.62-4.88-1.85Z"/><path class="cls-1" d="M194.36,58.23c-1.16-1.01-1.74-3.25-1.74-6.74h5.33c0,2.52.17,3.87.51,4.05.34.18.83.27,1.48.27s1.16-.07,1.5-.22c.34-.14.52-.87.52-2.16,0-1.14-.27-1.91-.81-2.3-.54-.39-1.44-.75-2.7-1.06-2.41-.77-3.97-1.58-4.7-2.43-.73-.85-1.09-2.25-1.09-4.2,0-2.93.6-4.88,1.8-5.84,1.2-.96,3.03-1.44,5.49-1.44s4.26.54,5.47,1.61c1.21,1.07,1.81,3.27,1.81,6.6h-5.33c0-2.52-.18-3.86-.53-4.02-.36-.16-.85-.25-1.48-.25s-1.14.06-1.49.19c-.34.12-.52.85-.52,2.19,0,1.26.28,2.06.85,2.41.57.35,1.5.7,2.79,1.07,2.4.74,3.95,1.5,4.67,2.27.72.77,1.07,2.14,1.07,4.11,0,2.87-.57,4.83-1.72,5.86s-3.01,1.55-5.58,1.55-4.44-.5-5.59-1.51Z"/><path class="cls-1" d="M208.79,36.16h11.01v4.73h-5.66v4.51h5.55v4.73h-5.55v4.79h5.66v4.71h-11.01v-23.46Z"/><path class="cls-1" d="M221.3,36.16h8.66c2.32,0,3.82.67,4.51,2.02s1.03,3.15,1.03,5.4c0,2.02-.36,3.65-1.07,4.88-.71,1.23-2.24,1.84-4.58,1.84h-3.18v9.32h-5.38v-23.46ZM228.79,54.48v-1.92h-5.69v-4.25l9.07-.1.59,1.2-1.41.76.07.37,1.99-.42,2.25,9.5h-5.38l-1.48-5.14ZM229.08,47.19c.38,0,.66-.34.83-1.03.17-.69.25-1.54.25-2.55,0-1.08-.09-2-.25-2.76-.17-.76-.45-1.14-.83-1.14h-2.43v7.48h2.43Z"/><path class="cls-1" d="M246.67,36.16h5.33l-3.59,23.46h-8.12l-3.63-23.46h5.38l1.99,17.23c.03.11.06.23.07.37.02.14.03.27.04.39v2.02h.43l-.02-2.04c.01-.12.03-.24.05-.38.02-.13.04-.26.07-.38l2-17.22Z"/><path class="cls-1" d="M253.55,36.16h5.35v23.46h-5.35v-23.46Z"/><path class="cls-1" d="M262.27,57.54c-1.18-1.47-1.76-4.68-1.76-9.61s.58-8.22,1.75-9.63c1.17-1.42,3.06-2.13,5.69-2.13s4.56.69,5.66,2.07,1.66,4.12,1.66,8.22h-5.35c0-3.7-.13-5.67-.38-5.93-.25-.25-.78-.38-1.58-.38s-1.36.16-1.65.47c-.29.31-.43,2.75-.43,7.32s.15,6.97.44,7.32.84.52,1.62.52,1.33-.15,1.58-.45c.26-.3.39-2.24.39-5.81h5.35c0,3.95-.55,6.64-1.66,8.07-1.1,1.44-2.99,2.16-5.64,2.16s-4.51-.74-5.68-2.21Z"/><path class="cls-1" d="M276.81,36.16h11.01v4.73h-5.66v4.51h5.55v4.73h-5.55v4.79h5.66v4.71h-11.01v-23.46Z"/><path class="cls-1" d="M291.04,58.23c-1.16-1.01-1.74-3.25-1.74-6.74h5.33c0,2.52.17,3.87.51,4.05.34.18.83.27,1.48.27s1.16-.07,1.5-.22c.34-.14.52-.87.52-2.16,0-1.14-.27-1.91-.81-2.3-.54-.39-1.44-.75-2.7-1.06-2.41-.77-3.97-1.58-4.7-2.43-.73-.85-1.09-2.25-1.09-4.2,0-2.93.6-4.88,1.8-5.84,1.2-.96,3.03-1.44,5.49-1.44s4.26.54,5.47,1.61c1.21,1.07,1.81,3.27,1.81,6.6h-5.33c0-2.52-.18-3.86-.53-4.02-.36-.16-.85-.25-1.48-.25s-1.14.06-1.49.19c-.34.12-.52.85-.52,2.19,0,1.26.28,2.06.85,2.41.57.35,1.5.7,2.79,1.07,2.4.74,3.95,1.5,4.67,2.27.72.77,1.07,2.14,1.07,4.11,0,2.87-.57,4.83-1.72,5.86s-3.01,1.55-5.58,1.55-4.44-.5-5.59-1.51Z"/><path class="cls-1" d="M17.33,16.82h4.92l-2.42,38.67h-7.81l-2.38-38.67h4.92l1.13,31.37v.56l.02,2.62h.44l.02-2.62v-.28c0-.09,0-.18.02-.28l1.13-31.37Z"/><path class="cls-1" d="M23.48,16.82h5.98c2.43,0,3.99.72,4.68,2.15.69,1.44,1,3.85.93,7.25-.03,2.34-.13,4.12-.29,5.36-.28,1.62-1.01,2.51-2.2,2.69v.61c1.19.02,1.91.88,2.15,2.6.24,1.71.37,4.09.37,7.13,0,4.51-.33,7.44-.98,8.82-.65,1.37-2.29,2.06-4.92,2.06h-5.71V16.82ZM29.38,32.54c.39,0,.62-.4.69-1.21s.1-2.35.1-4.62-.03-3.73-.09-4.53-.29-1.2-.7-1.2h-1.03v11.56h1.03ZM29.43,51.25c.38,0,.6-.42.66-1.26.06-.84.1-2.72.1-5.64s-.03-4.8-.1-5.91c-.07-1.12-.3-1.68-.71-1.68h-1.03v14.5h1.08Z"/><path class="cls-1" d="M38.07,53.42c-.85-1.44-1.27-5.33-1.27-11.64h4.87c0,5.55.04,8.55.12,8.99.08.44.38.66.91.66s.82-.21.89-.64.11-2.01.11-4.75c0-2.4-.1-4.15-.31-5.24-.2-1.09-.85-1.88-1.92-2.35-2.24-1.08-3.57-2.38-4.02-3.89-.44-1.52-.66-3.83-.66-6.93,0-4.49.46-7.41,1.38-8.77s2.44-2.03,4.54-2.03,3.6.74,4.52,2.22c.92,1.48,1.38,5.32,1.38,11.52h-4.92c0-5.63-.04-8.64-.12-9.01s-.38-.56-.88-.56-.82.18-.89.54c-.07.36-.11,1.98-.11,4.87,0,2.45.11,4.19.33,5.23.22,1.04.92,1.82,2.09,2.34,2.14,1.04,3.43,2.29,3.88,3.72.45,1.44.67,3.79.67,7.05,0,4.21-.43,7.07-1.3,8.58s-2.42,2.27-4.68,2.27-3.78-.72-4.63-2.17Z"/><path class="cls-2" d="M29.16,70.05c-.2,0-.4-.02-.59-.07L1.82,63.19c-1.07-.27-1.82-1.24-1.82-2.34V10.9c0-1.05.68-1.99,1.69-2.3L28.43.11c.48-.15.99-.15,1.46,0l26.74,8.48c1,.32,1.69,1.25,1.69,2.3v49.95c0,1.11-.75,2.07-1.82,2.34l-26.74,6.78c-.19.05-.39.07-.59.07ZM4.84,58.97l24.32,6.17,24.32-6.17V12.67l-24.32-7.71L4.84,12.67v46.3ZM55.9,60.85h0,0Z"/></g></svg>